<svg width="52" height="52" viewBox="0 0 52 52" fill="none" xmlns="http://www.w3.org/2000/svg">
<path d="M5.6778 9.16554V25.0359C5.67785 30.0522 7.19797 34.9507 10.0378 39.0858C12.8776 43.2208 16.9038 46.3983 21.5856 48.1993L23.7554 49.0331C25.2004 49.5889 26.8002 49.5889 28.2452 49.0331L30.415 48.1993C35.0968 46.3983 39.123 43.2208 41.9628 39.0858C44.8026 34.9507 46.3228 30.0522 46.3228 25.0359V9.16554C46.3268 8.56834 46.1582 7.9827 45.8372 7.47906C45.5162 6.97542 45.0566 6.57524 44.5136 6.32665C38.677 3.77912 32.3683 2.4928 26.0003 2.55187C19.6323 2.4928 13.3236 3.77912 7.48703 6.32665C6.94401 6.57524 6.48437 6.97542 6.1634 7.47906C5.84244 7.9827 5.67381 8.56834 5.6778 9.16554V9.16554Z" stroke="#131313" stroke-width="3" stroke-linecap="round" stroke-linejoin="round"/>
</svg>
