<svg width="32" height="32" viewBox="0 0 32 32" fill="none" xmlns="http://www.w3.org/2000/svg">
<path fill-rule="evenodd" clip-rule="evenodd" d="M4.86401 16.6565L19.5411 2.14004C19.5411 2.14004 19.5411 2.14004 19.5411 2.14004C20.7944 0.900438 22.8205 0.928972 24.0384 2.20334L29.918 8.35546C31.0918 9.58367 31.0816 11.521 29.895 12.7368L15.6827 27.2989H4.86401V16.6565ZM21.4815 4.10186L7.62331 17.8084V24.5396H14.5201L27.9203 10.8096C28.0686 10.6576 28.0699 10.4154 27.9232 10.2619L22.0436 4.10978C21.8914 3.95048 21.6381 3.94691 21.4815 4.10186Z" fill="#131313"/>
<path d="M2.77681 30.782C2.39746 30.782 2.06553 30.6398 1.78102 30.3553C1.21199 29.7863 1.21199 28.8853 1.78102 28.3637L18.0931 12.0516C18.6621 11.4826 19.563 11.4826 20.0846 12.0516C20.6537 12.6207 20.6537 13.5216 20.0846 14.0432L3.7726 30.3553C3.48809 30.6398 3.15616 30.782 2.77681 30.782Z" fill="#131313"/>
<path d="M19.6102 21.9622H11.5964C10.7903 21.9622 10.1738 21.3457 10.1738 20.5396C10.1738 19.7335 10.7903 19.1171 11.5964 19.1171H19.6102C20.4163 19.1171 21.0327 19.7335 21.0327 20.5396C21.0327 21.3457 20.4163 21.9622 19.6102 21.9622Z" fill="#131313"/>
</svg>
