<svg width="162" height="29" viewBox="0 0 162 29" fill="none" xmlns="http://www.w3.org/2000/svg">
<g clip-path="url(#clip0_1_85)">
<path d="M0 7.33191C0 6.77962 0.447715 6.33191 1 6.33191H13.4274C13.9797 6.33191 14.4274 6.77962 14.4274 7.33191V9.15962C14.4274 9.7119 13.9797 10.1596 13.4274 10.1596H6.22961C5.67732 10.1596 5.22961 10.6073 5.22961 11.1596V14.1725C5.22961 14.7248 5.67732 15.1725 6.22961 15.1725H11.272C11.8243 15.1725 12.272 15.6202 12.272 16.1725V17.8641C12.272 18.4163 11.8243 18.8641 11.272 18.8641H6.22961C5.67732 18.8641 5.22961 19.3118 5.22961 19.8641V22.973C5.22961 23.5253 5.67732 23.973 6.22961 23.973H13.4274C13.9797 23.973 14.4274 24.4207 14.4274 24.973V26.8087C14.4274 27.361 13.9797 27.8087 13.4274 27.8087H1C0.447715 27.8087 0 27.361 0 26.8087L0 7.33191Z" fill="#131313"/>
<path d="M44.935 12.2897C46.1492 12.2897 47.2519 12.4712 48.2432 12.8342C49.2401 13.1972 50.095 13.7177 50.8079 14.3957C51.5208 15.0737 52.0721 15.8959 52.462 16.8621C52.8574 17.8284 53.0551 18.9175 53.0551 20.1293C53.0551 21.3465 52.8574 22.4435 52.462 23.4205C52.0721 24.4028 51.5208 25.2329 50.8079 25.9109C50.095 26.5942 49.2401 27.1201 48.2432 27.4884C47.2519 27.8568 46.1492 28.041 44.935 28.041C43.7154 28.041 42.6071 27.8568 41.6101 27.4884C40.6077 27.1201 39.7472 26.5942 39.0288 25.9109C38.3047 25.2329 37.745 24.4028 37.3496 23.4205C36.9542 22.4435 36.7565 21.3465 36.7565 20.1293C36.7565 18.9175 36.9542 17.8284 37.3496 16.8621C37.745 15.8959 38.3047 15.0737 39.0288 14.3957C39.7472 13.7177 40.6077 13.1972 41.6101 12.8342C42.6071 12.4712 43.7154 12.2897 44.935 12.2897ZM44.935 24.6537C46.0322 24.6537 46.8398 24.2827 47.3577 23.5406C47.8757 22.7986 48.1346 21.6721 48.1346 20.1613C48.1346 18.6452 47.8757 17.5188 47.3577 16.782C46.8398 16.0453 46.0322 15.677 44.935 15.677C43.81 15.677 42.9858 16.0453 42.4623 16.782C41.9387 17.5188 41.677 18.6452 41.677 20.1613C41.677 21.6721 41.9387 22.7986 42.4623 23.5406C42.9858 24.2827 43.81 24.6537 44.935 24.6537Z" fill="#131313"/>
<path d="M65.3212 25.8976C64.9299 25.9952 64.5184 25.8482 64.2774 25.5248L51.6632 8.59682C51.2365 8.02419 51.5302 7.20176 52.2232 7.029L54.8268 6.37985C55.2645 6.27072 55.645 6.27762 55.9684 6.40057C56.2959 6.51698 56.5585 6.71836 56.7561 7.00469L63.745 17.1134C64.0555 17.5531 64.3791 18.0336 64.7157 18.5549V18.5549C64.9827 18.9709 65.7131 18.7915 65.7451 18.2983V18.2983C65.7868 17.6827 65.8361 17.1092 65.893 16.5778L67.2938 4.37737C67.3252 4.08894 67.457 3.80024 67.6891 3.51128C67.928 3.22614 68.2555 3.0317 68.6716 2.92796L71.2995 2.27274C71.9924 2.09998 72.6378 2.68825 72.5299 3.39417L69.3394 24.2627C69.2785 24.6613 68.9841 24.9843 68.5928 25.0819L65.3212 25.8976Z" fill="#131313"/>
<path d="M81.8894 12.2897C82.9475 12.2897 83.9138 12.4445 84.7882 12.7541C85.6682 13.0691 86.4228 13.5282 87.0521 14.1315C87.6815 14.7294 88.1744 15.4634 88.5308 16.3336C88.8817 17.2038 89.0571 18.1887 89.0571 19.2885C89.0571 19.6301 89.0432 19.9104 89.0153 20.1293C88.9819 20.3428 88.9234 20.5137 88.8399 20.6418C88.7619 20.7699 88.6533 20.858 88.5141 20.906C88.3749 20.9594 88.1967 20.9861 87.9794 20.9861H79.9113C79.3109 20.9861 78.8334 21.5169 79.005 22.0922C79.22 22.8132 79.5521 23.3707 80.0014 23.7648C80.6585 24.336 81.5051 24.6217 82.541 24.6217C83.0924 24.6217 83.5685 24.5576 83.9695 24.4295C84.3705 24.3067 84.727 24.1652 85.0388 24.0051C85.3507 23.8502 85.6375 23.7088 85.8993 23.5806C86.1611 23.4525 86.434 23.3885 86.718 23.3885C87.0967 23.3885 87.3835 23.5193 87.5785 23.7808L88.3997 24.753C88.7234 25.1361 88.7183 25.7064 88.3412 26.0371C88.0337 26.3069 87.7126 26.5425 87.378 26.7437C86.8043 27.08 86.2195 27.3443 85.6236 27.5365C85.0221 27.7287 84.4206 27.8621 83.8191 27.9369C83.2232 28.0063 82.6524 28.041 82.1066 28.041C80.9871 28.041 79.9401 27.8675 78.9655 27.5205C77.9853 27.1735 77.1276 26.6556 76.3924 25.967C75.6629 25.2783 75.0836 24.4241 74.6548 23.4045C74.2315 22.3795 74.0199 21.189 74.0199 19.833C74.0199 18.8134 74.2009 17.8444 74.5629 16.9262C74.9249 16.0133 75.4484 15.2125 76.1335 14.5239C76.8129 13.8405 77.6372 13.296 78.6062 12.8903C79.5753 12.4899 80.6697 12.2897 81.8894 12.2897ZM81.9813 15.4448C81.0679 15.4448 80.355 15.6903 79.8426 16.1815C79.5632 16.4523 79.3359 16.7882 79.1608 17.1892C78.9126 17.7577 79.3991 18.3275 80.0195 18.3275H83.7799C84.3321 18.3275 84.7938 17.8727 84.6559 17.3379C84.6501 17.3154 84.6441 17.293 84.6378 17.2705C84.5376 16.9235 84.3789 16.6166 84.1617 16.3496C83.9389 16.0774 83.6493 15.8585 83.2928 15.693C82.9308 15.5275 82.4936 15.4448 81.9813 15.4448Z" fill="#131313"/>
<path d="M97.1673 26.8087C97.1673 27.361 96.7195 27.8087 96.1673 27.8087H93.3971C92.8448 27.8087 92.3971 27.361 92.3971 26.8087V13.5219C92.3971 12.9696 92.8448 12.5219 93.3971 12.5219H95.2291C95.463 12.5219 95.658 12.5406 95.8139 12.578C95.9754 12.6207 96.1091 12.6821 96.2149 12.7621C96.3263 12.8476 96.4098 12.9597 96.4655 13.0985C96.5212 13.2373 96.5686 13.4028 96.6075 13.5949V13.5949C96.7056 14.1209 97.4145 14.2775 97.7829 13.8896C98.1165 13.5384 98.4682 13.2347 98.8381 12.9783C99.5676 12.4765 100.364 12.2256 101.227 12.2256C101.69 12.2256 102.095 12.2944 102.442 12.4318C102.791 12.5702 102.931 12.9624 102.864 13.3317L102.363 16.0934C102.319 16.2962 102.235 16.4404 102.113 16.5258C101.99 16.6059 101.826 16.6459 101.62 16.6459C101.447 16.6459 101.244 16.6246 101.01 16.5818C100.771 16.5391 100.473 16.5178 100.116 16.5178C98.9389 16.5178 98 17.0809 97.2995 18.2072C97.2093 18.3522 97.1673 18.5213 97.1673 18.6921V26.8087Z" fill="#131313"/>
<path d="M117.442 13.7235C117.84 14.0077 117.898 14.5574 117.626 14.9637L117.02 15.8692C116.897 16.056 116.766 16.1895 116.627 16.2696C116.488 16.3443 116.312 16.3817 116.101 16.3817C115.872 16.3817 115.647 16.3363 115.424 16.2455C115.196 16.1494 114.951 16.048 114.689 15.9412C114.427 15.8345 114.132 15.733 113.803 15.6369C113.475 15.5462 113.102 15.5008 112.684 15.5008C112.077 15.5008 111.612 15.6102 111.289 15.8291C110.966 16.0533 110.804 16.3603 110.804 16.75C110.804 17.0383 110.91 17.2759 111.122 17.4627C111.333 17.6496 111.612 17.8124 111.957 17.9512C112.308 18.0953 112.704 18.2315 113.144 18.3596C113.583 18.4877 114.035 18.6292 114.497 18.784C114.959 18.9441 115.41 19.1283 115.85 19.3365C116.29 19.5501 116.686 19.8117 117.036 20.1213C117.382 20.4309 117.66 20.8073 117.872 21.2504C118.084 21.6935 118.189 22.2247 118.189 22.8439C118.189 23.5967 118.045 24.2933 117.755 24.934C117.471 25.5746 117.045 26.1244 116.477 26.5836C115.903 27.048 115.199 27.4084 114.363 27.6646C113.528 27.9155 112.567 28.041 111.481 28.041C110.941 28.041 110.398 27.9929 109.852 27.8968C109.312 27.8007 108.786 27.6673 108.273 27.4964C107.766 27.3309 107.298 27.1334 106.87 26.9039C106.731 26.8299 106.599 26.754 106.473 26.6762C106.044 26.4111 105.967 25.8432 106.245 25.4224L106.87 24.4775C107.003 24.28 107.162 24.1252 107.346 24.0131C107.53 23.901 107.772 23.8449 108.073 23.8449C108.346 23.8449 108.593 23.9036 108.816 24.0211C109.033 24.1385 109.273 24.2666 109.535 24.4054C109.791 24.5442 110.089 24.6724 110.428 24.7898C110.774 24.9073 111.208 24.966 111.732 24.966C112.099 24.966 112.411 24.9286 112.667 24.8539C112.924 24.7791 113.13 24.6777 113.286 24.5496C113.436 24.4215 113.547 24.28 113.62 24.1252C113.692 23.965 113.728 23.8022 113.728 23.6367C113.728 23.3324 113.62 23.0815 113.402 22.884C113.191 22.6864 112.91 22.5183 112.559 22.3795C112.213 22.2353 111.815 22.1019 111.364 21.9791C110.919 21.8563 110.467 21.7148 110.011 21.5547C109.549 21.3999 109.095 21.213 108.649 20.9941C108.204 20.7699 107.805 20.4896 107.454 20.1533C107.104 19.8117 106.822 19.3953 106.611 18.9041C106.393 18.413 106.285 17.8177 106.285 17.1184C106.285 16.4724 106.416 15.8558 106.678 15.2686C106.939 14.6867 107.332 14.1742 107.855 13.7311C108.379 13.288 109.033 12.9357 109.819 12.6741C110.609 12.4178 111.534 12.2897 112.592 12.2897C113.166 12.2897 113.723 12.3377 114.263 12.4338C114.798 12.5299 115.302 12.6687 115.775 12.8502C116.248 13.0264 116.68 13.2346 117.07 13.4748C117.199 13.5553 117.323 13.6382 117.442 13.7235Z" fill="#131313"/>
<path d="M128.672 12.2897C129.73 12.2897 130.696 12.4445 131.571 12.7541C132.45 13.0691 133.205 13.5282 133.834 14.1315C134.464 14.7294 134.957 15.4634 135.313 16.3336C135.664 17.2038 135.839 18.1887 135.839 19.2885C135.839 19.6301 135.825 19.9104 135.798 20.1293C135.764 20.3428 135.706 20.5137 135.622 20.6418C135.544 20.7699 135.436 20.858 135.296 20.906C135.157 20.9594 134.979 20.9861 134.762 20.9861H126.694C126.093 20.9861 125.616 21.5169 125.787 22.0922C126.002 22.8132 126.334 23.3707 126.784 23.7648C127.441 24.336 128.287 24.6217 129.323 24.6217C129.875 24.6217 130.351 24.5576 130.752 24.4295C131.153 24.3067 131.509 24.1652 131.821 24.0051C132.133 23.8502 132.42 23.7088 132.682 23.5806C132.943 23.4525 133.216 23.3885 133.5 23.3885C133.879 23.3885 134.166 23.5193 134.361 23.7808L135.182 24.753C135.506 25.1361 135.501 25.7064 135.124 26.0371C134.816 26.3069 134.495 26.5425 134.16 26.7437C133.587 27.08 133.002 27.3443 132.406 27.5365C131.804 27.7287 131.203 27.8621 130.601 27.9369C130.006 28.0063 129.435 28.041 128.889 28.041C127.769 28.041 126.722 27.8675 125.748 27.5205C124.768 27.1735 123.91 26.6556 123.175 25.967C122.445 25.2783 121.866 24.4241 121.437 23.4045C121.014 22.3795 120.802 21.189 120.802 19.833C120.802 18.8134 120.983 17.8444 121.345 16.9262C121.707 16.0133 122.231 15.2125 122.916 14.5239C123.595 13.8405 124.419 13.296 125.389 12.8903C126.358 12.4899 127.452 12.2897 128.672 12.2897ZM128.764 15.4448C127.85 15.4448 127.137 15.6903 126.625 16.1815C126.345 16.4523 126.118 16.7882 125.943 17.1892C125.695 17.7577 126.181 18.3275 126.802 18.3275H130.562C131.114 18.3275 131.576 17.8727 131.438 17.3379C131.432 17.3154 131.426 17.293 131.42 17.2705C131.32 16.9235 131.161 16.6166 130.944 16.3496C130.721 16.0774 130.432 15.8585 130.075 15.693C129.713 15.5275 129.276 15.4448 128.764 15.4448Z" fill="#131313"/>
<path d="M25.5172 27.8087C25.1139 27.8087 24.7501 27.5665 24.5946 27.1945L19.191 14.272C18.9155 13.6132 19.3995 12.8863 20.1136 12.8863H21.5196C21.8331 12.8863 22.0885 12.9549 22.2858 13.0921C22.487 13.2257 22.6302 13.4056 22.7154 13.6318L25.7279 21.6216C25.8633 21.9703 26.0007 22.3487 26.14 22.7567V22.7567C26.2501 23.082 26.7727 23.0838 26.8772 22.7567V22.7567C27.0088 22.3487 27.1384 21.9703 27.2661 21.6216L30.2612 13.6318C30.3309 13.4427 30.4682 13.2702 30.6733 13.1144C30.8823 12.9623 31.1358 12.8863 31.4337 12.8863H32.8571C33.5713 12.8863 34.0552 13.6132 33.7797 14.272L28.3762 27.1945C28.2206 27.5665 27.8568 27.8087 27.4536 27.8087H25.5172Z" fill="#131313"/>
<path fill-rule="evenodd" clip-rule="evenodd" d="M139.312 14.2674C139.312 13.4661 139.633 12.698 140.202 12.1345L151.655 0.807426C152.709 -0.235028 154.413 -0.211032 155.437 0.860659L160.381 6.03432C161.368 7.06719 161.36 8.69641 160.362 9.71884L149.293 21.0603C148.728 21.6387 147.954 21.9649 147.146 21.9649H142.312C140.655 21.9649 139.312 20.6217 139.312 18.9649V14.2674ZM153.287 2.45723L142.523 13.1032C141.953 13.6667 141.632 14.4348 141.632 15.2361V16.6445C141.632 18.3013 142.976 19.6445 144.632 19.6445H146.168C146.977 19.6445 147.751 19.3183 148.315 18.7399L158.701 8.09812C158.826 7.97031 158.827 7.76666 158.704 7.63755L153.759 2.46389C153.631 2.32992 153.418 2.32693 153.287 2.45723Z" fill="#131313"/>
</g>
<defs>
<clipPath id="clip0_1_85">
<rect width="161.116" height="28.1903" fill="white" transform="translate(0 0.0409737)"/>
</clipPath>
</defs>
</svg>
