<svg width="147" height="28" viewBox="0 0 147 28" fill="none" xmlns="http://www.w3.org/2000/svg">
<g clip-path="url(#clip0_1_85)">
<path fill-rule="evenodd" clip-rule="evenodd" d="M124.106 15.0648C124.106 14.3075 124.393 13.5782 124.908 13.0232L135.368 1.76128C136.329 0.725862 137.884 0.749695 138.818 1.81415L143.33 6.95289C144.23 7.97879 144.223 9.59701 143.312 10.6125L133.301 21.7785C132.732 22.4133 131.92 22.7759 131.068 22.7759H127.106C125.449 22.7759 124.106 21.4328 124.106 19.7759V15.0648ZM136.857 3.39995L127.025 13.9854C126.51 14.5403 126.223 15.2696 126.223 16.0269V17.4712C126.223 19.128 127.567 20.4712 129.223 20.4712H130.176C131.028 20.4712 131.84 20.1085 132.409 19.4738L141.797 9.00276C141.911 8.87581 141.912 8.67354 141.799 8.5453L137.288 3.40656C137.171 3.2735 136.977 3.27052 136.857 3.39995Z" fill="#131313"/>
<path d="M22.8438 23H18.707L16.3867 14C16.293 13.6328 16.1445 12.9727 15.9414 12.0195C15.7305 10.9336 15.6094 10.2578 15.5781 9.99219C15.5391 10.3594 15.4219 11.043 15.2266 12.043C15.0312 13.043 14.8906 13.7031 14.8047 14.0234L12.4961 23H8.37109L4 5.86719H7.57422L9.76562 15.2188C10.1328 16.8438 10.4102 18.3398 10.5977 19.707C10.6445 19.2539 10.7539 18.5469 10.9258 17.5859C11.1055 16.6172 11.2617 15.9102 11.3945 15.4648L13.8906 5.86719H17.3242L19.8203 15.4648C19.9453 15.9648 20.0859 16.6523 20.2422 17.5273C20.4062 18.4023 20.5273 19.1289 20.6055 19.707C20.707 18.957 20.8398 18.1445 21.0039 17.2695C21.1758 16.3945 21.3242 15.7109 21.4492 15.2188L23.6289 5.86719H27.2031L22.8438 23ZM34.7617 9.65234C35.9648 9.65234 37.0391 9.92578 37.9844 10.4727C38.9375 11.0117 39.6719 11.793 40.1875 12.8164C40.7109 13.832 40.9727 14.9961 40.9727 16.3086C40.9727 16.3477 40.9727 16.3867 40.9727 16.4258C40.9727 18.5586 40.4102 20.2266 39.2852 21.4297C38.1602 22.6328 36.5938 23.2344 34.5859 23.2344C34.5547 23.2344 34.5195 23.2344 34.4805 23.2344C33.2773 23.2344 32.1992 22.9609 31.2461 22.4141C30.3008 21.8594 29.5664 21.0703 29.043 20.0469C28.5273 19.0234 28.2695 17.8555 28.2695 16.543C28.2695 16.5039 28.2695 16.4648 28.2695 16.4258C28.2695 14.2852 28.8281 12.625 29.9453 11.4453C31.0625 10.25 32.6328 9.65234 34.6562 9.65234C34.6875 9.65234 34.7227 9.65234 34.7617 9.65234ZM36.6719 13.4961C36.2422 12.8555 35.5547 12.5352 34.6094 12.5352C33.6641 12.5352 32.9766 12.8516 32.5469 13.4844C32.125 14.1172 31.9141 15.0977 31.9141 16.4258C31.9141 17.7461 32.1289 18.7344 32.5586 19.3906C32.9961 20.0391 33.6836 20.3633 34.6211 20.3633C35.5664 20.3633 36.25 20.0391 36.6719 19.3906C37.1016 18.7422 37.3164 17.7578 37.3164 16.4375C37.3164 15.1094 37.1016 14.1289 36.6719 13.4961ZM47.5117 4.76562V9.00781C47.5117 9.54688 47.4648 10.4141 47.3711 11.6094H47.5117C48.3398 10.3047 49.5508 9.65234 51.1445 9.65234C52.7461 9.65234 53.9844 10.2617 54.8594 11.4805C55.7344 12.668 56.1719 14.332 56.1719 16.4727C56.1719 18.6055 55.7188 20.2656 54.8125 21.4531C53.9062 22.6406 52.6836 23.2344 51.1445 23.2344C49.6055 23.2344 48.3945 22.6758 47.5117 21.5586H47.2656L46.668 23H43.9375V4.76562H47.5117ZM47.5117 16.4023C47.5117 17.8008 47.7188 18.8086 48.1328 19.4258C48.5469 20.0352 49.2109 20.3398 50.125 20.3398C50.8672 20.3398 51.4531 20 51.8828 19.3203C52.3125 18.6328 52.5273 17.6562 52.5273 16.3906C52.5273 15.1172 52.3125 14.1523 51.8828 13.4961C51.4531 12.8398 50.8516 12.5117 50.0781 12.5117C49.1875 12.5117 48.5391 12.7852 48.1328 13.332C47.7344 13.8789 47.5273 14.7734 47.5117 16.0156V16.4023ZM58.9727 6.52344C58.9727 5.35156 59.6211 4.76562 60.918 4.76562C62.2148 4.76562 62.8633 5.34766 62.8633 6.51172C62.8633 7.07422 62.6992 7.50781 62.3711 7.8125C62.043 8.11719 61.5586 8.26953 60.918 8.26953C59.6211 8.26953 58.9727 7.6875 58.9727 6.52344ZM62.6992 23H59.125V9.89844H62.6992V23ZM77.9102 23H75.168L74.4766 21.3008H74.3242C73.5195 22.5898 72.2812 23.2344 70.6094 23.2344C69.0625 23.2344 67.8516 22.6406 66.9766 21.4531C66.1016 20.2578 65.6641 18.5938 65.6641 16.4609C65.6641 14.3203 66.1094 12.6523 67 11.457C67.8984 10.2539 69.1523 9.65234 70.7617 9.65234C72.3711 9.65234 73.6094 10.2969 74.4766 11.5859H74.5938C74.4141 10.5781 74.3242 9.70312 74.3242 8.96094V4.76562H77.9102V23ZM74.5703 16.4961C74.5703 15.0977 74.3516 14.0938 73.9141 13.4844C73.4766 12.8672 72.7734 12.5586 71.8047 12.5586C71 12.5586 70.3789 12.8984 69.9414 13.5781C69.5039 14.2578 69.2852 15.2383 69.2852 16.5195C69.2852 17.793 69.5039 18.7578 69.9414 19.4141C70.3867 20.0625 71.0469 20.3867 71.9219 20.3867C72.7969 20.3867 73.4492 20.125 73.8789 19.6016C74.3086 19.0703 74.5391 18.1641 74.5703 16.8828V16.4961ZM87.332 9.65234C88.5352 9.65234 89.6094 9.92578 90.5547 10.4727C91.5078 11.0117 92.2422 11.793 92.7578 12.8164C93.2812 13.832 93.543 14.9961 93.543 16.3086C93.543 16.3477 93.543 16.3867 93.543 16.4258C93.543 18.5586 92.9805 20.2266 91.8555 21.4297C90.7305 22.6328 89.1641 23.2344 87.1562 23.2344C87.125 23.2344 87.0898 23.2344 87.0508 23.2344C85.8477 23.2344 84.7695 22.9609 83.8164 22.4141C82.8711 21.8594 82.1367 21.0703 81.6133 20.0469C81.0977 19.0234 80.8398 17.8555 80.8398 16.543C80.8398 16.5039 80.8398 16.4648 80.8398 16.4258C80.8398 14.2852 81.3984 12.625 82.5156 11.4453C83.6328 10.25 85.2031 9.65234 87.2266 9.65234C87.2578 9.65234 87.293 9.65234 87.332 9.65234ZM89.2422 13.4961C88.8125 12.8555 88.125 12.5352 87.1797 12.5352C86.2344 12.5352 85.5469 12.8516 85.1172 13.4844C84.6953 14.1172 84.4844 15.0977 84.4844 16.4258C84.4844 17.7461 84.6992 18.7344 85.1289 19.3906C85.5664 20.0391 86.2539 20.3633 87.1914 20.3633C88.1367 20.3633 88.8203 20.0391 89.2422 19.3906C89.6719 18.7422 89.8867 17.7578 89.8867 16.4375C89.8867 15.1094 89.6719 14.1289 89.2422 13.4961ZM100.082 4.76562V9.00781C100.082 9.54688 100.035 10.4141 99.9414 11.6094H100.082C100.91 10.3047 102.121 9.65234 103.715 9.65234C105.316 9.65234 106.555 10.2617 107.43 11.4805C108.305 12.668 108.742 14.332 108.742 16.4727C108.742 18.6055 108.289 20.2656 107.383 21.4531C106.477 22.6406 105.254 23.2344 103.715 23.2344C102.176 23.2344 100.965 22.6758 100.082 21.5586H99.8359L99.2383 23H96.5078V4.76562H100.082ZM100.082 16.4023C100.082 17.8008 100.289 18.8086 100.703 19.4258C101.117 20.0352 101.781 20.3398 102.695 20.3398C103.438 20.3398 104.023 20 104.453 19.3203C104.883 18.6328 105.098 17.6562 105.098 16.3906C105.098 15.1172 104.883 14.1523 104.453 13.4961C104.023 12.8398 103.422 12.5117 102.648 12.5117C101.758 12.5117 101.109 12.7852 100.703 13.332C100.305 13.8789 100.098 14.7734 100.082 16.0156V16.4023ZM111.543 6.52344C111.543 5.35156 112.191 4.76562 113.488 4.76562C114.785 4.76562 115.434 5.34766 115.434 6.51172C115.434 7.07422 115.27 7.50781 114.941 7.8125C114.613 8.11719 114.129 8.26953 113.488 8.26953C112.191 8.26953 111.543 7.6875 111.543 6.52344ZM115.27 23H111.695V9.89844H115.27V23Z" fill="#131313"/>
</g>
<defs>
<clipPath id="clip0_1_85">
<rect width="147" height="28" fill="white"/>
</clipPath>
</defs>
</svg>
