<svg width="27" height="27" viewBox="0 0 27 27" fill="none" xmlns="http://www.w3.org/2000/svg">
<g clip-path="url(#clip0_2551_24112)">
<path fill-rule="evenodd" clip-rule="evenodd" d="M12.2293 2.56728C6.83151 2.56728 2.45571 6.94308 2.45571 12.3409C2.45571 17.7387 6.83151 22.1145 12.2293 22.1145C17.6271 22.1145 22.0029 17.7387 22.0029 12.3409C22.0029 6.94308 17.6271 2.56728 12.2293 2.56728ZM0.568848 12.3409C0.568848 5.90099 5.78942 0.68042 12.2293 0.68042C18.6692 0.68042 23.8898 5.90099 23.8898 12.3409C23.8898 18.7808 18.6692 24.0014 12.2293 24.0014C5.78942 24.0014 0.568848 18.7808 0.568848 12.3409Z" fill="#B1B1B1"/>
<path fill-rule="evenodd" clip-rule="evenodd" d="M19.1309 19.2429C19.4994 18.8744 20.0967 18.8744 20.4652 19.2429L26.2925 25.0703C26.661 25.4387 26.661 26.0361 26.2925 26.4045C25.9241 26.7729 25.3268 26.7729 24.9583 26.4045L19.1309 20.5771C18.7625 20.2087 18.7625 19.6113 19.1309 19.2429Z" fill="#B1B1B1"/>
</g>
<defs>
<clipPath id="clip0_2551_24112">
<rect width="26" height="26" fill="white" transform="translate(0.568848 0.68042)"/>
</clipPath>
</defs>
</svg>
