<svg width="52" height="52" viewBox="0 0 52 52" fill="none" xmlns="http://www.w3.org/2000/svg">
<path d="M44.8137 15.6333C41.2249 9.43085 34.5079 5.25977 26.8022 5.25977C15.3182 5.25977 6.00098 14.5499 6.00098 25.9933V27.6725" stroke="#131313" stroke-width="3" stroke-miterlimit="10" stroke-linecap="round"/>
<path d="M45.7122 19.2266C46.2456 19.3695 46.794 19.0529 46.9369 18.5195L48.3699 13.1716C48.6003 12.3118 47.677 11.6021 46.9054 12.0459L40.1067 15.9561C39.3338 16.4006 39.4852 17.5581 40.3465 17.7889L45.7122 19.2266Z" fill="#131313"/>
<path d="M8.79102 36.3396C12.3798 42.5556 19.0968 46.7402 26.8025 46.7402C38.2865 46.7402 47.6037 37.423 47.6037 25.939V24.2056" stroke="#131313" stroke-width="3" stroke-miterlimit="10" stroke-linecap="round"/>
<path d="M3.71232 37.5197C3.45185 38.3716 4.35148 39.1132 5.1381 38.695L12.4419 34.8115C13.2285 34.3932 13.1168 33.2327 12.2648 32.9722L6.67115 31.2621C6.143 31.1006 5.58394 31.3979 5.42247 31.926L3.71232 37.5197Z" fill="#131313"/>
</svg>
