<svg width="256" height="256" viewBox="0 0 256 256" fill="none" xmlns="http://www.w3.org/2000/svg">
<path fill-rule="evenodd" clip-rule="evenodd" d="M38.9121 133.252L156.329 17.1205C156.329 17.1204 156.329 17.1205 156.329 17.1205C166.355 7.20363 182.564 7.4319 192.307 17.6269L239.344 66.8438C248.734 76.6695 248.653 92.1681 239.16 101.895L125.462 218.391H38.9121V133.252ZM171.852 32.815L60.9865 142.467V196.317H116.161L223.362 86.4766C224.549 85.2608 224.559 83.3234 223.385 82.0952L176.349 32.8783C175.131 31.6039 173.105 31.5754 171.852 32.815Z" fill="#131313"/>
<path d="M22.214 246.257C19.1792 246.257 16.5237 245.119 14.2476 242.843C9.69545 238.29 9.69545 231.083 14.2476 226.91L144.744 96.4135C149.296 91.8613 156.504 91.8613 160.677 96.4135C165.229 100.966 165.229 108.173 160.677 112.346L30.1803 242.843C27.9042 245.119 25.2488 246.257 22.214 246.257Z" fill="#131313"/>
<path d="M156.881 175.698H92.7709C86.3219 175.698 81.3904 170.766 81.3904 164.317C81.3904 157.868 86.3219 152.937 92.7709 152.937H156.881C163.33 152.937 168.262 157.868 168.262 164.317C168.262 170.766 163.33 175.698 156.881 175.698Z" fill="#131313"/>
</svg>
