<svg width="26" height="26" viewBox="0 0 26 26" fill="none" xmlns="http://www.w3.org/2000/svg">
<path fill-rule="evenodd" clip-rule="evenodd" d="M3 16.0648C3 15.3075 3.28644 14.5782 3.80182 14.0232L14.2614 2.76128C15.223 1.72586 16.7777 1.7497 17.7121 2.81415L22.2233 7.95289C23.1239 8.97879 23.1162 10.597 22.2057 11.6125L12.1951 22.7785C11.626 23.4133 10.8138 23.7759 9.96136 23.7759H6C4.34315 23.7759 3 22.4328 3 20.7759V16.0648ZM15.7502 4.39995L5.91897 14.9854C5.40358 15.5403 5.11715 16.2696 5.11715 17.0269V18.4712C5.11715 20.128 6.4603 21.4712 8.11715 21.4712H9.06936C9.92184 21.4712 10.7341 21.1085 11.3031 20.4738L20.6906 10.0028C20.8044 9.87581 20.8053 9.67354 20.6928 9.5453L16.1815 4.40656C16.0647 4.2735 15.8704 4.27052 15.7502 4.39995Z" fill="#131313"/>
</svg>
